HIERARCHY
ROOT hip
{
	OFFSET 0.000000 103.560692 0.219151
	CHANNELS 6 Xposition Yposition Zposition Zrotation Xrotation Yrotation
	JOINT pelvis
	{
		OFFSET 0.000000 1.955040 1.591925
		CHANNELS 3 Zrotation Xrotation Yrotation
		JOINT lThigh
		{
			OFFSET 8.341582 -7.629402 -0.646910
			CHANNELS 3 Zrotation Xrotation Yrotation
			JOINT lShin
			{
				OFFSET 2.185763 -45.093132 -0.705710
				CHANNELS 3 Zrotation Xrotation Yrotation
				JOINT lFoot
				{
					OFFSET 0.730976 -46.379768 -2.264282
					CHANNELS 3 Zrotation Xrotation Yrotation
					JOINT lToe
					{
						OFFSET 2.797621 -4.200020 10.742415
						CHANNELS 3 Zrotation Xrotation Yrotation
						JOINT lBigToe
						{
							OFFSET -2.433708 -0.269072 1.841711
							CHANNELS 3 Zrotation Xrotation Yrotation
							End Site
							{
								OFFSET -10.527346 -33.657166 -1.340707
							}
						}
					}
				}
			}
		}
		JOINT rThigh
		{
			OFFSET -8.341582 -7.629402 -0.646910
			CHANNELS 3 Zrotation Xrotation Yrotation
			JOINT rShin
			{
				OFFSET -2.185763 -45.093132 -0.705710
				CHANNELS 3 Zrotation Xrotation Yrotation
				JOINT rFoot
				{
					OFFSET -0.730976 -46.379768 -2.264282
					CHANNELS 3 Zrotation Xrotation Yrotation
					JOINT rToe
					{
						OFFSET -2.797621 -4.200019 10.742415
						CHANNELS 3 Zrotation Xrotation Yrotation
						JOINT rBigToe
						{
							OFFSET 2.433708 -0.269072 1.841711
							CHANNELS 3 Zrotation Xrotation Yrotation
							End Site
							{
								OFFSET 0.000000 24.298409 -0.425647
							}
						}
					}
				}
			}
		}
	}
	JOINT abdomen
	{
		OFFSET 0.000000 1.841293 -3.551421
		CHANNELS 3 Zrotation Xrotation Yrotation
		JOINT abdomen2
		{
			OFFSET 0.000000 5.439911 3.419600
			CHANNELS 3 Zrotation Xrotation Yrotation
			JOINT chest
			{
				OFFSET 0.000000 14.715073 -2.918270
				CHANNELS 3 Zrotation Xrotation Yrotation
				JOINT neck
				{
					OFFSET 0.000000 26.294655 -1.248052
					CHANNELS 3 Zrotation Xrotation Yrotation
					JOINT head
					{
						OFFSET 0.000000 8.807068 1.063695
						CHANNELS 3 Zrotation Xrotation Yrotation
						JOINT rEye
						{
							OFFSET -3.030866 6.632080 7.702687
							CHANNELS 3 Zrotation Xrotation Yrotation
							End Site
							{
								OFFSET 2.969555 -11.022598 8.626689
							}
						}
						JOINT lEye
						{
							OFFSET 3.030866 6.632080 7.702687
							CHANNELS 3 Zrotation Xrotation Yrotation
							End Site
							{
								OFFSET 0.000000 -15.881760 10.104412
							}
						}
						JOINT upperJaw
						{
							OFFSET 0.000000 1.922699 2.891887
							CHANNELS 3 Zrotation Xrotation Yrotation
							End Site
							{
								OFFSET 0.000000 -19.386169 10.230839
							}
						}
						JOINT lowerJaw
						{
							OFFSET 0.000000 1.857620 2.686640
							CHANNELS 3 Zrotation Xrotation Yrotation
							JOINT tongueBase
							{
								OFFSET 0.000000 -3.019135 2.746916
								CHANNELS 3 Zrotation Xrotation Yrotation
								JOINT tongue01
								{
									OFFSET 0.000000 0.664124 0.223355
									CHANNELS 3 Zrotation Xrotation Yrotation
									JOINT tongue02
									{
										OFFSET 0.000000 0.339737 0.715627
										CHANNELS 3 Zrotation Xrotation Yrotation
										JOINT tongue03
										{
											OFFSET 0.000000 0.123444 0.730634
											CHANNELS 3 Zrotation Xrotation Yrotation
											JOINT tongue04
											{
												OFFSET 0.000000 0.017212 0.737415
												CHANNELS 3 Zrotation Xrotation Yrotation
												JOINT tongue05
												{
													OFFSET 0.000000 -0.021011 0.632440
													CHANNELS 3 Zrotation Xrotation Yrotation
													JOINT tongueTip
													{
														OFFSET 0.000000 -0.014404 0.601796
														CHANNELS 3 Zrotation Xrotation Yrotation
														End Site
														{
															OFFSET -14.139406 -2.625778 0.472826
														}
													}
												}
											}
										}
									}
								}
							}
						}
					}
				}
				JOINT rCollar
				{
					OFFSET -2.109295 21.452370 3.768136
					CHANNELS 3 Zrotation Xrotation Yrotation
					JOINT rShldr
					{
						OFFSET -11.491621 -2.568573 -4.940255
						CHANNELS 3 Zrotation Xrotation Yrotation
						JOINT rForeArm
						{
							OFFSET -28.789030 -0.213806 2.098380
							CHANNELS 3 Zrotation Xrotation Yrotation
							JOINT rHand
							{
								OFFSET -22.260895 -0.869583 10.391586
								CHANNELS 3 Zrotation Xrotation Yrotation
								JOINT rThumb1
								{
									OFFSET -0.628075 0.137405 2.362409
									CHANNELS 3 Zrotation Xrotation Yrotation
									JOINT rThumb2
									{
										OFFSET 0.085205 -0.600235 3.826079
										CHANNELS 3 Zrotation Xrotation Yrotation
										JOINT rThumb3
										{
											OFFSET -1.255478 -0.879211 2.439162
											CHANNELS 3 Zrotation Xrotation Yrotation
											End Site
											{
												OFFSET -2.963715 0.538574 4.059553
											}
										}
									}
								}
								JOINT rCarpal1
								{
									OFFSET -0.855530 1.026047 1.621985
									CHANNELS 3 Zrotation Xrotation Yrotation
									JOINT rIndex1
									{
										OFFSET -3.951324 0.390884 3.873290
										CHANNELS 3 Zrotation Xrotation Yrotation
										JOINT rIndex2
										{
											OFFSET -3.071884 -1.259598 2.506104
											CHANNELS 3 Zrotation Xrotation Yrotation
											JOINT rIndex3
											{
												OFFSET -1.394112 -1.446640 1.203302
												CHANNELS 3 Zrotation Xrotation Yrotation
												End Site
												{
													OFFSET -3.392448 -1.258026 0.533405
												}
											}
										}
									}
									JOINT rMid1
									{
										OFFSET -5.422974 0.107910 2.002650
										CHANNELS 3 Zrotation Xrotation Yrotation
										JOINT rMid2
										{
											OFFSET -3.599533 -1.323776 2.090647
											CHANNELS 3 Zrotation Xrotation Yrotation
											JOINT rMid3
											{
												OFFSET -1.360191 -1.598495 1.068055
												CHANNELS 3 Zrotation Xrotation Yrotation
												End Site
												{
													OFFSET -4.087769 -0.460876 0.069540
												}
											}
										}
									}
								}
								JOINT rCarpal2
								{
									OFFSET -1.942749 0.556229 -0.337217
									CHANNELS 3 Zrotation Xrotation Yrotation
									JOINT rRing1
									{
										OFFSET -4.762787 -0.121170 2.349089
										CHANNELS 3 Zrotation Xrotation Yrotation
										JOINT rRing2
										{
											OFFSET -3.380348 -1.337097 1.356700
											CHANNELS 3 Zrotation Xrotation Yrotation
											JOINT rRing3
											{
												OFFSET -1.430290 -1.499649 0.914224
												CHANNELS 3 Zrotation Xrotation Yrotation
												End Site
												{
													OFFSET -1.783272 -2.215851 -0.391895
												}
											}
										}
									}
									JOINT rPinky1
									{
										OFFSET -5.232559 -1.313721 0.336493
										CHANNELS 3 Zrotation Xrotation Yrotation
										JOINT rPinky2
										{
											OFFSET -2.217606 -1.389603 0.800693
											CHANNELS 3 Zrotation Xrotation Yrotation
											JOINT rPinky3
											{
												OFFSET -0.886887 -1.462280 0.774199
												CHANNELS 3 Zrotation Xrotation Yrotation
												End Site
												{
													OFFSET 14.139406 -2.625778 0.472826
												}
											}
										}
									}
								}
							}
						}
					}
				}
				JOINT lCollar
				{
					OFFSET 2.109295 21.452370 3.768136
					CHANNELS 3 Zrotation Xrotation Yrotation
					JOINT lShldr
					{
						OFFSET 11.491621 -2.568573 -4.940255
						CHANNELS 3 Zrotation Xrotation Yrotation
						JOINT lForeArm
						{
							OFFSET 28.789030 -0.213806 2.098380
							CHANNELS 3 Zrotation Xrotation Yrotation
							JOINT lHand
							{
								OFFSET 22.260895 -0.869583 10.391586
								CHANNELS 3 Zrotation Xrotation Yrotation
								JOINT lThumb1
								{
									OFFSET 0.628075 0.137405 2.362409
									CHANNELS 3 Zrotation Xrotation Yrotation
									JOINT lThumb2
									{
										OFFSET -0.085205 -0.600235 3.826079
										CHANNELS 3 Zrotation Xrotation Yrotation
										JOINT lThumb3
										{
											OFFSET 1.255478 -0.879211 2.439162
											CHANNELS 3 Zrotation Xrotation Yrotation
											End Site
											{
												OFFSET 2.963715 0.538574 4.059553
											}
										}
									}
								}
								JOINT lCarpal1
								{
									OFFSET 0.855530 1.026047 1.621985
									CHANNELS 3 Zrotation Xrotation Yrotation
									JOINT lIndex1
									{
										OFFSET 3.951324 0.390884 3.873290
										CHANNELS 3 Zrotation Xrotation Yrotation
										JOINT lIndex2
										{
											OFFSET 3.071884 -1.259598 2.506104
											CHANNELS 3 Zrotation Xrotation Yrotation
											JOINT lIndex3
											{
												OFFSET 1.394112 -1.446640 1.203302
												CHANNELS 3 Zrotation Xrotation Yrotation
												End Site
												{
													OFFSET 3.392448 -1.258026 0.533405
												}
											}
										}
									}
									JOINT lMid1
									{
										OFFSET 5.422974 0.107910 2.002650
										CHANNELS 3 Zrotation Xrotation Yrotation
										JOINT lMid2
										{
											OFFSET 3.599533 -1.323776 2.090647
											CHANNELS 3 Zrotation Xrotation Yrotation
											JOINT lMid3
											{
												OFFSET 1.360191 -1.598495 1.068055
												CHANNELS 3 Zrotation Xrotation Yrotation
												End Site
												{
													OFFSET 4.087769 -0.460876 0.069540
												}
											}
										}
									}
								}
								JOINT lCarpal2
								{
									OFFSET 1.942749 0.556229 -0.337217
									CHANNELS 3 Zrotation Xrotation Yrotation
									JOINT lRing1
									{
										OFFSET 4.762787 -0.121170 2.349089
										CHANNELS 3 Zrotation Xrotation Yrotation
										JOINT lRing2
										{
											OFFSET 3.380348 -1.337097 1.356700
											CHANNELS 3 Zrotation Xrotation Yrotation
											JOINT lRing3
											{
												OFFSET 1.430290 -1.499649 0.914224
												CHANNELS 3 Zrotation Xrotation Yrotation
												End Site
												{
													OFFSET 1.783272 -2.215851 -0.391895
												}
											}
										}
									}
									JOINT lPinky1
									{
										OFFSET 5.232559 -1.313721 0.336493
										CHANNELS 3 Zrotation Xrotation Yrotation
										JOINT lPinky2
										{
											OFFSET 2.217606 -1.389603 0.800693
											CHANNELS 3 Zrotation Xrotation Yrotation
											JOINT lPinky3
											{
												OFFSET 0.886887 -1.462280 0.774199
												CHANNELS 3 Zrotation Xrotation Yrotation
												End Site
												{
													OFFSET -10.295957 -17.050110 17.461308
												}
											}
										}
									}
								}
							}
						}
					}
				}
				JOINT rPectoral
				{
					OFFSET -6.358840 6.360771 6.369920
					CHANNELS 3 Zrotation Xrotation Yrotation
					End Site
					{
						OFFSET 10.295957 -17.050110 17.461308
					}
				}
				JOINT lPectoral
				{
					OFFSET 6.358840 6.360771 6.369920
					CHANNELS 3 Zrotation Xrotation Yrotation
					End Site
					{
						OFFSET 10.295957 -17.050110 17.461308
					}
				}
			}
		}
	}
}
MOTION
Frames:	4
Frame Time:	0.0333333
0.000000 0.988563 0.000000 0.762223 3.443995 1.576757 0.000000 0.000000 0.000000 2.963385 -4.752192 -0.378482 -1.304068 2.275243 -7.198832 2.570051 -16.530396 -8.553661 4.372590 -8.159938 1.819090 0.000000 0.000000 0.000000 -2.343465 -7.545961 4.637968 2.626101 7.682518 11.455020 -6.190187 -19.691641 -8.712098 -4.722867 -7.726259 -1.703113 0.000000 0.000000 0.000000 -1.739818 -2.254973 -3.448787 0.000000 0.000000 0.000000 1.286296 6.260974 -2.639704 4.538545 -17.368904 1.669275 -3.770800 12.035876 4.176224 0.000000 0.000000 0.000000 0.000000 0.000000 0.000000 0.000000 0.000000 0.000000 0.000000 0.000000 0.000000 0.000000 0.000000 0.000000 0.000000 0.000000 0.000000 0.000000 0.000000 0.000000 0.000000 0.000000 0.000000 0.000000 0.000000 0.000000 0.000000 0.000000 0.000000 0.000000 0.000000 0.000000 17.969503 -0.082396 -3.837565 57.723297 24.763693 2.182965 0.451563 -12.991405 -8.537599 2.243217 1.780507 2.891243 -20.286983 16.003134 -11.242840 -5.460320 -14.203113 9.700747 -16.386185 20.674324 16.306753 0.000000 0.000000 0.000000 -10.306186 -8.539560 -17.029549 -2.329383 0.158963 -1.311718 -6.010979 -3.610875 -1.143216 -8.550843 -3.323679 -7.145673 -0.651522 3.028691 -3.804597 0.560609 4.666640 -2.198745 0.000000 0.000000 0.000000 -7.611748 -8.343170 -0.037786 3.863393 4.739815 -6.985120 1.328322 8.391970 -3.973221 -21.910795 -24.665661 -14.976031 1.013203 5.939926 -6.999176 24.181765 21.167713 -1.929171 -12.967263 0.065659 3.174918 -65.704636 20.729015 -2.953140 3.113644 -18.721338 19.256958 -10.737016 6.544425 -4.461303 15.319375 21.766415 8.847219 9.885556 -11.673474 7.281462 18.869974 24.455250 -9.597977 0.000000 0.000000 0.000000 12.075328 -8.711681 19.562775 3.330045 -2.191814 -0.191994 7.695800 -5.953151 1.292995 9.654486 -3.697624 7.560929 1.669824 2.704275 3.998934 -3.521486 6.279520 1.477375 0.000000 0.000000 0.000000 14.823339 -9.916796 2.952401 -14.879623 10.550489 6.871516 -11.611259 10.904914 0.415985 20.841299 -25.215755 15.664283 -1.840489 7.770340 6.102779 -27.424421 15.403507 -3.008311 0.150756 -0.007537 -0.442678 -0.115598 -0.005675 0.339429 
0.000000 0.988563 0.000000 0.762223 3.443995 1.576757 0.000000 0.000000 0.000000 2.963385 -4.752192 -0.378482 -1.304068 2.275243 -7.198832 2.570051 -16.530396 -8.553661 4.372590 -8.159938 1.819090 0.000000 0.000000 0.000000 -2.343465 -7.545961 4.637968 2.626101 7.682518 11.455020 -6.190187 -19.691641 -8.712098 -4.722867 -7.726259 -1.703113 0.000000 0.000000 0.000000 -1.739818 -2.254973 -3.448787 0.000000 0.000000 0.000000 1.286296 6.260974 -2.639704 4.538545 -17.368904 1.669275 -3.770800 12.035876 4.176224 0.000000 0.000000 0.000000 0.000000 0.000000 0.000000 0.000000 0.000000 0.000000 0.000000 0.000000 0.000000 0.000000 0.000000 0.000000 0.000000 0.000000 0.000000 0.000000 0.000000 0.000000 0.000000 0.000000 0.000000 0.000000 0.000000 0.000000 0.000000 0.000000 0.000000 0.000000 0.000000 0.000000 17.969503 -0.082396 -3.837565 57.723297 24.763693 2.182965 0.451563 -12.991405 -8.537599 2.243217 1.780507 2.891243 -20.286983 16.003134 -11.242840 -5.460320 -14.203113 9.700747 -16.386185 20.674324 16.306753 0.000000 0.000000 0.000000 -10.306186 -8.539560 -17.029549 -2.329383 0.158963 -1.311718 -6.010979 -3.610875 -1.143216 -8.550843 -3.323679 -7.145673 -0.651522 3.028691 -3.804597 0.560609 4.666640 -2.198745 0.000000 0.000000 0.000000 -7.611748 -8.343170 -0.037786 3.863393 4.739815 -6.985120 1.328322 8.391970 -3.973221 -21.910795 -24.665661 -14.976031 1.013203 5.939926 -6.999176 24.181765 21.167713 -1.929171 -12.967263 0.065659 3.174918 -65.704636 20.729015 -2.953140 3.113644 -18.721338 19.256958 -10.737016 6.544425 -4.461303 15.319375 21.766415 8.847219 9.885556 -11.673474 7.281462 18.869974 24.455250 -9.597977 0.000000 0.000000 0.000000 12.075328 -8.711681 19.562775 3.330045 -2.191814 -0.191994 7.695800 -5.953151 1.292995 9.654486 -3.697624 7.560929 1.669824 2.704275 3.998934 -3.521486 6.279520 1.477375 0.000000 0.000000 0.000000 14.823339 -9.916796 2.952401 -14.879623 10.550489 6.871516 -11.611259 10.904914 0.415985 20.841299 -25.215755 15.664283 -1.840489 7.770340 6.102779 -27.424421 15.403507 -3.008311 0.150756 -0.007537 -0.442678 -0.115598 -0.005675 0.339429 
-0.397011 0.909967 -0.066861 0.542244 3.204664 1.800124 0.000000 0.000000 0.000000 3.330724 -5.548144 -0.345109 -1.096950 4.293638 -7.602112 2.391029 -17.663700 -8.429391 4.372590 -8.159938 1.819090 0.000000 0.000000 0.000000 -1.939509 -7.438730 4.854287 2.859252 7.848717 11.146626 -6.543751 -19.863379 -9.089359 -4.865627 -7.321362 -1.693973 0.000000 0.000000 0.000000 -1.629966 -1.971721 -3.344932 0.000000 0.000000 0.000000 1.499852 6.376779 -2.629943 3.812290 -17.718298 1.608978 -3.048222 12.047762 3.691304 0.000000 0.000000 0.000000 0.000000 0.000000 0.000000 0.000000 0.000000 0.000000 0.000000 0.000000 0.000000 0.000000 0.000000 0.000000 0.000000 0.000000 0.000000 0.000000 0.000000 0.000000 0.000000 0.000000 0.000000 0.000000 0.000000 0.000000 0.000000 0.000000 0.000000 0.000000 0.000000 0.000000 17.894850 -0.075377 -3.807142 57.713917 25.229458 2.325650 0.342885 -13.507693 -8.496033 2.601851 1.999628 3.208022 -20.286983 16.003134 -11.242840 -5.460320 -14.203113 9.700747 -16.386185 20.674324 16.306753 0.000000 0.000000 0.000000 -10.306186 -8.539560 -17.029549 -2.483848 0.017711 -1.319913 -6.010979 -3.610875 -1.143216 -8.550843 -3.323679 -7.145673 -0.651522 3.028691 -3.804597 0.560609 4.666640 -2.198745 0.000000 0.000000 0.000000 -7.503881 -8.300852 -0.018325 4.240792 4.888707 -6.979567 1.328322 8.391970 -3.973221 -21.818394 -24.660744 -14.932032 2.395218 6.456589 -6.901752 24.481529 21.336922 -1.910298 -13.103893 0.069904 3.143330 -65.339493 21.250076 -3.323412 2.972032 -19.687016 19.132858 -10.725380 6.671431 -4.815032 15.319375 21.766415 8.847219 9.885556 -11.673474 7.281462 18.869974 24.455250 -9.597977 0.000000 0.000000 0.000000 12.075328 -8.711681 19.562775 3.330045 -2.191814 -0.191994 7.695800 -5.953151 1.292995 9.654486 -3.697624 7.560929 1.669824 2.704275 3.998934 -3.521486 6.279520 1.477375 0.000000 0.000000 0.000000 14.542744 -9.822089 2.892705 -14.879623 10.550489 6.871516 -11.611259 10.904914 0.415985 20.841299 -25.215755 15.664283 -3.161067 8.248547 6.046971 -27.825230 15.630886 -3.009477 0.149528 -0.007471 -0.439073 -0.114886 -0.005638 0.337336 
-0.745485 0.820978 -0.161947 0.284085 3.112190 2.068923 0.000000 0.000000 0.000000 3.744653 -6.288884 -0.193089 -1.004993 5.838748 -8.076461 2.354311 -18.512190 -8.344635 4.372590 -8.159938 1.819090 0.000000 0.000000 0.000000 -1.434156 -7.500309 4.665793 2.736830 8.099545 11.213233 -6.649994 -20.053741 -9.216364 -4.953019 -7.060301 -1.687039 0.000000 0.000000 0.000000 -1.421479 -1.930553 -3.275610 0.000000 0.000000 0.000000 1.160054 6.538483 -2.482397 4.419066 -17.987877 1.399392 -3.417405 12.103046 3.699169 0.000000 0.000000 0.000000 0.000000 0.000000 0.000000 0.000000 0.000000 0.000000 0.000000 0.000000 0.000000 0.000000 0.000000 0.000000 0.000000 0.000000 0.000000 0.000000 0.000000 0.000000 0.000000 0.000000 0.000000 0.000000 0.000000 0.000000 0.000000 0.000000 0.000000 0.000000 0.000000 0.000000 18.164408 -0.057378 -3.741780 57.446831 25.342392 2.498857 0.760894 -14.428246 -8.379948 2.780077 2.057995 2.644847 -20.286983 16.003134 -11.242840 -5.460320 -14.203113 9.700747 -16.386185 20.674324 16.306753 0.000000 0.000000 0.000000 -10.306186 -8.539560 -17.029549 -2.651360 -0.135403 -1.329271 -6.232583 -3.827171 -1.172629 -8.550843 -3.323679 -7.145673 -0.651522 3.028691 -3.804597 0.560609 4.666640 -2.198745 0.000000 0.000000 0.000000 -7.386898 -8.254832 0.002758 4.650106 5.050366 -6.974781 1.328322 8.391970 -3.973221 -21.718102 -24.655352 -14.883896 3.894971 7.017956 -6.810524 24.807367 21.520088 -1.891496 -12.819257 0.087014 3.066911 -64.928802 21.643412 -3.796165 2.718428 -20.783281 19.243193 -9.426312 6.099101 -5.089780 15.319375 21.766415 8.847219 9.885556 -11.673474 7.281462 18.869974 24.455250 -9.597977 0.000000 0.000000 0.000000 12.064118 -8.726187 19.497993 3.330045 -2.191814 -0.191994 7.695800 -5.953151 1.292995 9.654486 -3.697624 7.560929 1.669824 2.704275 3.998934 -3.521486 6.279520 1.477375 0.000000 0.000000 0.000000 14.245198 -9.721201 2.829665 -14.879623 10.550489 6.871516 -11.611259 10.904914 0.415985 20.841299 -25.215755 15.664283 -4.598623 8.770021 5.998787 -28.270838 15.883231 -3.009320 0.148251 -0.007402 -0.435321 -0.111757 -0.005475 0.328147 
